<svg width="22" height="22" viewBox="0 0 22 22" fill="none" xmlns="http://www.w3.org/2000/svg">
<path d="M11 20C15.9706 20 20 15.9706 20 11C20 6.02944 15.9706 2 11 2C6.02944 2 2 6.02944 2 11C2 15.9706 6.02944 20 11 20Z" stroke="#232323" stroke-width="2.14286" stroke-linecap="round" stroke-linejoin="round"/>
<path d="M13.4257 9.12717C13.4257 10.46 12.3457 11.9686 11.0128 11.9686C9.67998 11.9686 8.59998 10.46 8.59998 9.12717C8.59998 7.79431 9.67998 7.14288 11.0128 7.14288C12.3457 7.14288 13.4257 7.78574 13.4257 9.12717Z" stroke="#232323" stroke-width="2.14286" stroke-linecap="round" stroke-linejoin="round"/>
<path d="M5.94281 18.5C6.23043 17.3442 6.89007 16.315 7.82016 15.571C8.75025 14.827 9.89917 14.4094 11.0899 14.3826C12.2807 14.3558 13.4473 14.7213 14.4099 15.4227C15.3725 16.1241 16.0778 17.1226 16.4171 18.2643" stroke="#232323" stroke-width="2.14286" stroke-linecap="round" stroke-linejoin="round"/>
</svg>
