<svg width="41" height="51" viewBox="0 0 41 51" fill="none" xmlns="http://www.w3.org/2000/svg">
<path d="M12 11.8206C12 9.48128 12.8955 7.23764 14.4896 5.58346C16.0837 3.92927 18.2457 3 20.5 3C22.7543 3 24.9163 3.92927 26.5104 5.58346C28.1045 7.23764 29 9.48128 29 11.8206C29 16.6916 25.1939 22 20.5 22C15.8061 22 12 16.6916 12 11.8206Z" stroke="black" stroke-width="5" stroke-miterlimit="10"/>
<path d="M20.5 48C27.0356 48.0056 33.3151 45.4988 38 41.0138C36.7198 34.7813 29.3814 30 20.5 30C11.6185 30 4.26878 34.7813 3 41.0138C7.68356 45.5009 13.9639 48.008 20.5 48V48Z" stroke="black" stroke-width="5" stroke-miterlimit="10"/>
</svg>
