<svg width="43" height="43" viewBox="0 0 43 43" fill="none" xmlns="http://www.w3.org/2000/svg">
<path d="M21.5 40.5C31.9934 40.5 40.5 31.9934 40.5 21.5C40.5 11.0066 31.9934 2.5 21.5 2.5C11.0066 2.5 2.5 11.0066 2.5 21.5C2.5 31.9934 11.0066 40.5 21.5 40.5Z" stroke="#232323" stroke-width="5" stroke-linecap="round" stroke-linejoin="round"/>
<path d="M16.51 16.5601C16.51 15.234 17.0368 13.9621 17.9745 13.0244C18.9122 12.0867 20.1839 11.5601 21.51 11.5601C22.8151 11.5724 24.0647 12.0895 24.9969 13.0031C25.929 13.9166 26.4713 15.1554 26.51 16.46C26.5251 17.4877 26.2232 18.4951 25.6452 19.3451C25.0672 20.195 24.2413 20.8462 23.28 21.21C22.8624 21.361 22.4979 21.6308 22.2315 21.9861C21.965 22.3414 21.8081 22.7667 21.78 23.21L21.7 24.62" stroke="#232323" stroke-width="4" stroke-linecap="round" stroke-linejoin="round"/>
<circle cx="21.5" cy="31.5" r="2" fill="#232323" stroke="#232323"/>
</svg>
