<svg width="48" height="42" viewBox="0 0 48 42" fill="none" xmlns="http://www.w3.org/2000/svg">
<path d="M40.2999 4.57C38.1648 3.23284 35.6353 2.66911 33.1344 2.97308C30.6334 3.27705 28.3127 4.43028 26.56 6.23998L24 8.76H23.94L21.4099 6.23998C19.6572 4.43028 17.3364 3.27705 14.8355 2.97308C12.3346 2.66911 9.80512 3.23284 7.66994 4.57C6.42211 5.37808 5.37018 6.4542 4.59065 7.72006C3.81112 8.98591 3.32362 10.4097 3.16365 11.8877C3.00369 13.3657 3.17527 14.8607 3.66591 16.264C4.15655 17.6674 4.95392 18.9436 5.99996 20L23.87 38.87L24.2299 38.51L24.34 38.62L42 20C43.0445 18.9416 43.8399 17.6636 44.3282 16.2589C44.8165 14.8543 44.9853 13.3585 44.8225 11.8804C44.6596 10.4022 44.1691 8.97907 43.3868 7.71444C42.6044 6.44982 41.5499 5.37559 40.2999 4.57V4.57Z" fill="#DC0000" stroke="#DC0000" stroke-width="5" stroke-linecap="round" stroke-linejoin="round"/>
</svg>
