<svg width="51" height="51" viewBox="0 0 51 51" fill="none" xmlns="http://www.w3.org/2000/svg">
<path d="M48 28.2845V22.7264L42.8106 21.4684C42.3835 19.5382 41.6456 17.6906 40.6256 15.9979L43.3459 11.5449L39.413 7.61729L35.2069 10.1882C33.4347 8.98506 31.463 8.1072 29.3838 7.59539L28.2913 3H22.7414L21.6489 7.37635C19.3771 7.80298 17.2078 8.6609 15.2578 9.90376L11.5652 7.63892L7.63218 11.5668L9.81718 15.1883C8.50363 17.1807 7.59075 19.4105 7.12964 21.7528L3 22.7593V28.2845L7.24983 29.3129C7.75968 31.5488 8.68631 33.6683 9.98108 35.5601L7.61034 39.4442L11.5433 43.372L15.6511 40.8665C17.458 41.9495 19.4396 42.7086 21.5069 43.1095L22.6868 48H28.2367L29.4821 42.8578C31.3569 42.3772 33.1423 41.5976 34.7699 40.5492L39.3802 43.372L43.3132 39.4442L40.4399 34.7395C41.4362 33.1446 42.1737 31.4016 42.6249 29.5755L48 28.2845ZM25.5382 33.1422C24.0257 33.1422 22.5472 32.6931 21.2895 31.8515C20.0319 31.01 19.0517 29.814 18.4729 28.4146C17.8941 27.0152 17.7426 25.4752 18.0377 23.9896C18.3328 22.504 19.0611 21.1392 20.1307 20.0682C21.2002 18.9971 22.5628 18.2676 24.0463 17.9721C25.5298 17.6766 27.0674 17.8284 28.4648 18.4081C29.8622 18.9877 31.0566 19.9693 31.8969 21.2288C32.7372 22.4882 33.1857 23.9688 33.1857 25.4836C33.1857 27.5148 32.38 29.4627 30.9458 30.899C29.5116 32.3353 27.5665 33.1422 25.5382 33.1422V33.1422Z" stroke="black" stroke-width="5" stroke-linecap="round" stroke-linejoin="round"/>
</svg>
