<svg width="24" height="21" viewBox="0 0 24 21" fill="none" xmlns="http://www.w3.org/2000/svg">
<path d="M19.9012 14.5364H8.11729L5.6134 3.90875H21.98L19.9012 14.5364Z" stroke="#232323" stroke-width="2.12553" stroke-linecap="round" stroke-linejoin="round"/>
<path d="M10.7147 19C11.0669 19 11.3523 18.7145 11.3523 18.3623C11.3523 18.0102 11.0669 17.7247 10.7147 17.7247C10.3625 17.7247 10.077 18.0102 10.077 18.3623C10.077 18.7145 10.3625 19 10.7147 19Z" stroke="#232323" stroke-width="2.12553" stroke-linecap="round" stroke-linejoin="round"/>
<path d="M17.0913 19C17.4434 19 17.7289 18.7145 17.7289 18.3623C17.7289 18.0102 17.4434 17.7247 17.0913 17.7247C16.7391 17.7247 16.4536 18.0102 16.4536 18.3623C16.4536 18.7145 16.7391 19 17.0913 19Z" stroke="#232323" stroke-width="2.12553" stroke-linecap="round" stroke-linejoin="round"/>
<path d="M20.7047 9.22253H14.7532" stroke="#232323" stroke-width="2.12553" stroke-linecap="round" stroke-linejoin="round"/>
<path d="M5.63892 3.98524L4.5464 2.89697C4.01991 2.36911 3.31447 2.05812 2.56965 2.02551L2 2" stroke="#232323" stroke-width="2.12553" stroke-linecap="round" stroke-linejoin="round"/>
</svg>
